<svg width="30" height="30" viewBox="0 0 30 30" fill="none" xmlns="http://www.w3.org/2000/svg">
<rect x="0.5" y="0.5" width="29" height="29" rx="14.5" fill="#1877F2" stroke="white"/>
<path d="M15 18C16.6569 18 18 16.6569 18 15C18 13.3431 16.6569 12 15 12C13.3431 12 12 13.3431 12 15C12 16.6569 13.3431 18 15 18Z" fill="white"/>
<path d="M23 7H19.83L18.59 5.65C18.4036 5.44539 18.1767 5.28191 17.9235 5.16999C17.6704 5.05807 17.3968 5.00017 17.12 5H12.88C12.32 5 11.78 5.24 11.4 5.65L10.17 7H7C5.9 7 5 7.9 5 9V21C5 22.1 5.9 23 7 23H23C24.1 23 25 22.1 25 21V9C25 7.9 24.1 7 23 7ZM15 20C12.24 20 10 17.76 10 15C10 12.24 12.24 10 15 10C17.76 10 20 12.24 20 15C20 17.76 17.76 20 15 20Z" fill="white"/>
</svg>
