<svg width="12" height="12" viewBox="0 0 12 12" fill="none" xmlns="http://www.w3.org/2000/svg">
<path fill-rule="evenodd" clip-rule="evenodd" d="M11.7796 0.220299C11.8494 0.289954 11.9048 0.372701 11.9426 0.463802C11.9804 0.554902 11.9999 0.652565 11.9999 0.751198C11.9999 0.84983 11.9804 0.947493 11.9426 1.03859C11.9048 1.12969 11.8494 1.21244 11.7796 1.2821L1.28191 11.7801C1.14111 11.9209 0.950143 12 0.751024 12C0.551905 12 0.360941 11.9209 0.220142 11.7801C0.0793437 11.6393 0.000244142 11.4483 0.000244141 11.2492C0.000244139 11.0501 0.0793437 10.8591 0.220142 10.7183L10.7178 0.220299C10.7874 0.150467 10.8702 0.0950632 10.9613 0.0572607C11.0524 0.0194582 11.15 0 11.2487 0C11.3473 0 11.445 0.0194582 11.5361 0.0572607C11.6272 0.0950632 11.7099 0.150467 11.7796 0.220299V0.220299Z" fill="#C53030"/>
<path fill-rule="evenodd" clip-rule="evenodd" d="M0.220291 0.220299C0.150462 0.289954 0.09506 0.372701 0.0572588 0.463802C0.0194576 0.554902 0 0.652565 0 0.751198C0 0.84983 0.0194576 0.947493 0.0572588 1.03859C0.09506 1.12969 0.150462 1.21244 0.220291 1.2821L10.7179 11.7801C10.8587 11.9209 11.0497 12 11.2488 12C11.4479 12 11.6389 11.9209 11.7797 11.7801C11.9205 11.6393 11.9996 11.4483 11.9996 11.2492C11.9996 11.0501 11.9205 10.8591 11.7797 10.7183L1.28205 0.220299C1.2124 0.150467 1.12966 0.0950632 1.03856 0.0572607C0.947462 0.0194582 0.849802 0 0.751173 0C0.652544 0 0.554884 0.0194582 0.463787 0.0572607C0.372689 0.0950632 0.289944 0.150467 0.220291 0.220299V0.220299Z" fill="#C53030"/>
</svg>
