<svg width="100" height="100" viewBox="0 0 100 100" fill="none" xmlns="http://www.w3.org/2000/svg">
<path d="M49.9217 0.00905882C25.6081 -0.487885 2.92011 19.527 0.390996 43.7657C-2.28169 64.2651 8.95654 85.8873 27.7052 94.8212C45.4089 103.73 68.3657 101.047 83.0482 87.527C97.8754 74.5044 104.07 52.3448 97.2105 33.6813C90.9037 15.2856 73.2642 1.27516 53.7539 0.154519C52.479 0.0603215 51.2003 0.00905882 49.9217 0.00905882ZM49.3557 5.40363C71.6506 4.56288 92.6047 23.1804 94.3518 45.4744C96.4974 65.1362 84.1442 85.5054 65.3452 91.985C47.0709 98.7519 24.6392 92.1734 13.6022 75.8961C2.2743 60.0059 2.72421 36.5505 15.5774 21.6428C23.804 11.7196 36.4265 5.45175 49.3557 5.40363ZM50.2411 10.2661C29.6167 9.60899 10.6424 27.7421 10.2698 48.3969C9.36065 67.0616 23.174 85.3782 41.6269 88.9333C58.7247 92.6814 77.8289 83.8851 85.4572 67.9588C93.3466 52.4045 89.8182 31.7052 76.3573 20.3432C69.2249 14.0163 59.7908 10.2766 50.2411 10.2661ZM49.9984 15.5681C68.1796 15.0867 84.7383 31.4719 84.4467 49.697C84.7681 66.5452 71.2271 82.5578 54.3348 84.2565C38.4751 86.3419 21.7533 76.1576 17.1936 60.6201C12.4141 45.8165 18.6935 27.9864 32.4675 20.3641C37.7485 17.2486 43.8662 15.5581 49.9984 15.5681ZM27.3577 32.7019V67.3147H72.6747V32.7019H27.3577ZM37.4247 38.1095H62.6042C58.1443 40.8583 53.6839 46.8912 49.2245 47.5499C45.2913 44.4029 41.358 41.2564 37.4247 38.1095ZM67.2816 41.2931V61.9066H32.7509V41.2947C38.5043 45.8992 44.2574 50.5038 50.011 55.1078C55.7681 50.5032 61.5248 45.8981 67.2816 41.2931Z" fill="#1877F2"/>
</svg>
