<svg width="30" height="30" viewBox="0 0 30 30" fill="none" xmlns="http://www.w3.org/2000/svg">
<path d="M4.39339 25.6066C10.2513 31.4645 19.7487 31.4645 25.6066 25.6066C31.4644 19.7487 31.4644 10.2513 25.6066 4.39339C19.7487 -1.46446 10.2513 -1.46446 4.39339 4.39339C-1.46446 10.2513 -1.46446 19.7487 4.39339 25.6066ZM5.85776 24.1422C0.808613 19.0931 0.808613 10.9069 5.85776 5.85775C10.9069 0.808589 19.0931 0.808589 24.1422 5.85775C29.1914 10.9069 29.1914 19.0931 24.1422 24.1422C19.0931 29.1914 10.9069 29.1914 5.85776 24.1422ZM7.32081 23.3602L17.2736 17.2736L23.3602 7.32082L22.6792 6.63977L12.7264 12.7264L6.63979 22.6792L7.32081 23.3602Z" fill="#4F4F4F"/>
</svg>
