<svg width="50" height="50" viewBox="0 0 50 50" fill="none" xmlns="http://www.w3.org/2000/svg">
<rect width="50" height="50" rx="25" fill="#1877F2"/>
<path d="M32.3182 20.1429H38V22.5238H32.3182V20.1429ZM30.0455 26.0952H38V28.4762H30.0455V26.0952ZM33.4545 32.0476H38V34.4286H33.4545V32.0476ZM13 38C13 35.4741 13.9578 33.0517 15.6627 31.2656C17.3675 29.4796 19.6798 28.4762 22.0909 28.4762C24.502 28.4762 26.8143 29.4796 28.5192 31.2656C30.224 33.0517 31.1818 35.4741 31.1818 38H28.9091C28.9091 36.1056 28.1907 34.2888 26.9121 32.9492C25.6334 31.6097 23.8992 30.8571 22.0909 30.8571C20.2826 30.8571 18.5484 31.6097 17.2697 32.9492C15.9911 34.2888 15.2727 36.1056 15.2727 38H13ZM22.0909 27.2857C18.3239 27.2857 15.2727 24.0893 15.2727 20.1429C15.2727 16.1964 18.3239 13 22.0909 13C25.858 13 28.9091 16.1964 28.9091 20.1429C28.9091 24.0893 25.858 27.2857 22.0909 27.2857ZM22.0909 24.9048C24.6023 24.9048 26.6364 22.7738 26.6364 20.1429C26.6364 17.5119 24.6023 15.381 22.0909 15.381C19.5795 15.381 17.5455 17.5119 17.5455 20.1429C17.5455 22.7738 19.5795 24.9048 22.0909 24.9048Z" fill="white"/>
</svg>
