<svg width="17" height="15" viewBox="0 0 17 15" fill="none" xmlns="http://www.w3.org/2000/svg">
<path d="M15.6281 0H1.04188C0.765553 0 0.500548 0.131696 0.305158 0.366116C0.109769 0.600537 0 0.918479 0 1.25V13.75C0 14.0815 0.109769 14.3995 0.305158 14.6339C0.500548 14.8683 0.765553 15 1.04188 15H15.6281C15.9044 15 16.1695 14.8683 16.3648 14.6339C16.5602 14.3995 16.67 14.0815 16.67 13.75V1.25C16.67 0.918479 16.5602 0.600537 16.3648 0.366116C16.1695 0.131696 15.9044 0 15.6281 0V0ZM14.8259 13.75H1.90663L5.55319 9.225L4.80304 8.35625L1.04188 13.025V2.2L7.51713 9.93125C7.71234 10.1641 7.9764 10.2947 8.25165 10.2947C8.5269 10.2947 8.79096 10.1641 8.98617 9.93125L15.6281 2.00625V12.9437L11.794 8.34375L11.0595 9.225L14.8259 13.75ZM1.7243 1.25H14.7842L8.25165 9.04375L1.7243 1.25Z" fill="#4F4F4F"/>
</svg>
