<svg width="30" height="30" viewBox="0 0 30 30" fill="none" xmlns="http://www.w3.org/2000/svg">
<rect x="0.5" y="0.5" width="29" height="29" rx="14.5" fill="white" stroke="#828282"/>
<path d="M15.5 7C11.9153 7 9 9.15409 9 11.8029C9 13.8744 10.786 15.6403 13.2789 16.3116C13.9188 16.4839 14.4167 17.0311 14.4167 17.6937V17.6937C14.4167 18.4191 13.8286 19.0072 13.1031 19.0072H11.9671C11.5251 19.0072 11.1667 19.3656 11.1667 19.8077V19.8077C11.1667 20.2498 11.5251 20.6082 11.9671 20.6082H13.2207C13.8812 20.6082 14.4167 21.1436 14.4167 21.8041V21.9167C14.4167 22.515 14.9017 23 15.5 23V23C16.0983 23 16.5833 22.515 16.5833 21.9167V21.8041C16.5833 21.1436 17.1188 20.6082 17.7793 20.6082H19.0329C19.4749 20.6082 19.8333 20.2498 19.8333 19.8077V19.8077C19.8333 19.3656 19.4749 19.0072 19.0329 19.0072H17.897C17.1715 19.0072 16.5833 18.419 16.5833 17.6935V17.6935C16.5833 17.0309 17.0811 16.4838 17.7209 16.3114C20.2139 15.6398 22 13.8745 22 11.8029C22 9.15409 19.0848 7 15.5 7ZM15.5 15.0048C13.1102 15.0048 11.1667 13.5687 11.1667 11.8029C11.1667 10.037 13.1102 8.60096 15.5 8.60096C17.8898 8.60096 19.8333 10.037 19.8333 11.8029C19.8333 13.5687 17.8898 15.0048 15.5 15.0048Z" fill="#FFC0CB"/>
</svg>
