<svg width="20" height="18" viewBox="0 0 20 18" fill="none" xmlns="http://www.w3.org/2000/svg">
<path d="M18.1712 7.53113H17.5V7.5H10V10.5H14.7096C14.0225 12.2464 12.1762 13.5 10 13.5C7.23875 13.5 5 11.4851 5 9C5 6.51488 7.23875 4.5 10 4.5C11.2746 4.5 12.4342 4.93275 13.3171 5.63963L15.6742 3.51825C14.1858 2.26988 12.195 1.5 10 1.5C5.39791 1.5 1.66666 4.85813 1.66666 9C1.66666 13.1419 5.39791 16.5 10 16.5C14.6021 16.5 18.3333 13.1419 18.3333 9C18.3333 8.49713 18.2758 8.00625 18.1712 7.53113Z" fill="#FFC107"/>
<path d="M2.6275 5.50913L5.36542 7.31625C6.10625 5.6655 7.90042 4.5 10 4.5C11.2746 4.5 12.4342 4.93275 13.3171 5.63963L15.6742 3.51825C14.1858 2.26988 12.195 1.5 10 1.5C6.79917 1.5 4.02334 3.12638 2.6275 5.50913Z" fill="#FF3D00"/>
<path d="M10 16.5C12.1525 16.5 14.1083 15.7586 15.5871 14.553L13.0079 12.5887C12.1431 13.1806 11.0864 13.5008 10 13.5C7.8325 13.5 5.99209 12.2561 5.29875 10.5202L2.58125 12.4046C3.96042 14.8335 6.76125 16.5 10 16.5Z" fill="#4CAF50"/>
<path d="M18.1713 7.53113H17.5V7.5H10V10.5H14.7096C14.3809 11.3312 13.7889 12.0574 13.0067 12.5891L13.0079 12.5884L15.5871 14.5526C15.4046 14.7019 18.3333 12.75 18.3333 9C18.3333 8.49712 18.2758 8.00625 18.1713 7.53113Z" fill="#1976D2"/>
</svg>
