<svg width="165" height="36" viewBox="0 0 165 36" fill="none" xmlns="http://www.w3.org/2000/svg">
<path d="M39.468 29.3278C39.468 29.3278 39.6795 29.2134 40.008 29.0136C44.922 25.9604 48 21.5396 48 16.6239C48 7.44994 37.2585 0 24.0075 0C10.7565 0 0 7.44994 0 16.6239C0 25.7967 10.7415 33.2466 23.9925 33.2466C25.689 33.2466 27.3825 33.1274 29.046 32.877L29.5695 32.8084C32.937 34.5565 37.8435 36 42.1395 36C43.476 36 44.1015 35.1223 43.2495 34.2314C41.9535 32.9516 40.164 30.9086 39.468 29.329V29.3278ZM36.546 22.0657C35.118 23.7789 30.6795 26.6996 24.0405 26.6996H23.946C17.2905 26.6996 12.8595 23.7656 11.4375 22.0657C11.1536 21.8046 10.9642 21.4861 10.89 21.1447C10.8713 20.937 10.9553 20.7317 11.1237 20.5733C11.2921 20.4149 11.5315 20.3161 11.79 20.2983C11.8035 20.2923 11.8125 20.2923 11.8275 20.2923C12.063 20.302 12.2902 20.3651 12.483 20.4741C15.7339 22.6008 19.7971 23.7655 23.991 23.7729C28.2008 23.8104 32.2884 22.6382 35.5155 20.4681C35.6859 20.3429 35.9086 20.2738 36.1395 20.2742C36.672 20.2742 37.0935 20.6125 37.11 21.0339C37.0453 21.4105 36.8592 21.767 36.57 22.0681L36.546 22.0657Z" fill="white"/>
<path d="M58.096 27.048C57.136 27.048 56.656 26.792 56.656 26.28V10.92C56.656 10.408 57.136 10.152 58.096 10.152H58.936C59.896 10.152 60.376 10.408 60.376 10.92V17.352L60.472 17.376L64.648 10.608C64.824 10.304 65.304 10.152 66.088 10.152H67.216C68.112 10.152 68.56 10.272 68.56 10.512C68.56 10.656 68.496 10.824 68.368 11.016L63.736 18.12L68.992 26.184C69.12 26.376 69.184 26.544 69.184 26.688C69.184 26.928 68.736 27.048 67.84 27.048H66.448C65.648 27.048 65.16 26.896 64.984 26.592L60.472 19.296L60.376 19.32V26.28C60.376 26.792 59.896 27.048 58.936 27.048H58.096ZM71.9241 27.048C70.9641 27.048 70.4841 26.792 70.4841 26.28V10.92C70.4841 10.408 70.9641 10.152 71.9241 10.152H72.9561C73.3401 10.152 73.6601 10.2 73.9161 10.296C74.1721 10.376 74.3801 10.544 74.5401 10.8L79.9401 19.128C80.2601 19.592 80.5481 20.064 80.8041 20.544L80.9001 20.52C80.8681 20.152 80.8521 19.608 80.8521 18.888V10.92C80.8521 10.408 81.3321 10.152 82.2921 10.152H82.9881C83.9481 10.152 84.4281 10.408 84.4281 10.92V26.28C84.4281 26.792 83.9481 27.048 82.9881 27.048H82.0761C81.6921 27.048 81.3721 27.008 81.1161 26.928C80.8601 26.832 80.6521 26.656 80.4921 26.4L74.9721 17.952C74.6521 17.488 74.3641 17.016 74.1081 16.536L74.0121 16.56C74.0441 16.928 74.0601 17.472 74.0601 18.192V26.28C74.0601 26.792 73.5801 27.048 72.6201 27.048H71.9241ZM94.8621 27.192C92.3821 27.192 90.4781 26.456 89.1501 24.984C87.8221 23.496 87.1581 21.368 87.1581 18.6C87.1581 15.832 87.8221 13.712 89.1501 12.24C90.4781 10.752 92.3821 10.008 94.8621 10.008C97.3421 10.008 99.2381 10.752 100.55 12.24C101.878 13.712 102.542 15.832 102.542 18.6C102.542 21.368 101.878 23.496 100.55 24.984C99.2381 26.456 97.3421 27.192 94.8621 27.192ZM94.8621 24.048C96.1421 24.048 97.1101 23.584 97.7661 22.656C98.4221 21.728 98.7501 20.376 98.7501 18.6C98.7501 16.824 98.4221 15.48 97.7661 14.568C97.1101 13.64 96.1421 13.176 94.8621 13.176C93.5821 13.176 92.6061 13.64 91.9341 14.568C91.2781 15.48 90.9501 16.824 90.9501 18.6C90.9501 20.376 91.2781 21.728 91.9341 22.656C92.6061 23.584 93.5821 24.048 94.8621 24.048ZM108.798 27.048C108.398 27.048 108.086 27 107.862 26.904C107.654 26.808 107.518 26.648 107.454 26.424L103.686 11.136C103.654 10.944 103.638 10.824 103.638 10.776C103.638 10.36 104.134 10.152 105.126 10.152H105.75C106.71 10.152 107.246 10.4 107.358 10.896L109.158 18.624C109.302 19.28 109.43 20.048 109.542 20.928C109.67 21.792 109.75 22.552 109.782 23.208H109.878C109.974 22.456 110.102 21.64 110.262 20.76C110.422 19.88 110.574 19.16 110.718 18.6L112.686 10.656C112.734 10.464 112.862 10.336 113.07 10.272C113.294 10.192 113.606 10.152 114.006 10.152H114.918C115.318 10.152 115.622 10.192 115.83 10.272C116.054 10.336 116.19 10.464 116.238 10.656L118.134 18.624C118.31 19.424 118.47 20.264 118.614 21.144C118.758 22.008 118.846 22.696 118.878 23.208H118.974C119.038 22.616 119.142 21.88 119.286 21C119.446 20.12 119.614 19.312 119.79 18.576L121.638 10.896C121.75 10.4 122.286 10.152 123.246 10.152H123.51C124.502 10.152 124.998 10.36 124.998 10.776C124.998 10.92 124.982 11.04 124.95 11.136L121.086 26.424C120.974 26.84 120.518 27.048 119.718 27.048H117.966C117.15 27.048 116.702 26.84 116.622 26.424L114.846 18.912L114.342 15.888H114.246C113.99 17.488 113.814 18.496 113.718 18.912L111.894 26.4C111.782 26.832 111.326 27.048 110.526 27.048H108.798ZM140.776 22.992C140.36 22.992 140.04 22.84 139.816 22.536L136.864 17.256C136.656 16.904 136.48 16.592 136.336 16.32L136.24 16.344V17.52V26.28C136.24 26.792 135.76 27.048 134.8 27.048H134.104C133.144 27.048 132.664 26.792 132.664 26.28V10.92C132.664 10.408 133.144 10.152 134.104 10.152H135.376C136.144 10.152 136.648 10.368 136.888 10.8L140.872 17.904L141.112 18.312L141.328 17.904L145.384 10.8C145.624 10.368 146.128 10.152 146.896 10.152H148.144C149.104 10.152 149.584 10.408 149.584 10.92V26.28C149.584 26.792 149.104 27.048 148.144 27.048H147.448C146.488 27.048 146.008 26.792 146.008 26.28V17.52V16.344L145.912 16.32C145.768 16.592 145.592 16.904 145.384 17.256L142.432 22.536C142.208 22.84 141.888 22.992 141.472 22.992H140.776ZM154.042 27C153.706 27 153.458 26.928 153.298 26.784C153.154 26.624 153.082 26.376 153.082 26.04V11.16C153.082 10.824 153.154 10.584 153.298 10.44C153.458 10.28 153.706 10.2 154.042 10.2H162.466C162.722 10.2 162.906 10.296 163.018 10.488C163.13 10.68 163.186 10.984 163.186 11.4V12.144C163.186 12.56 163.13 12.864 163.018 13.056C162.906 13.248 162.722 13.344 162.466 13.344H156.778V16.824H161.818C162.074 16.824 162.258 16.92 162.37 17.112C162.482 17.304 162.538 17.608 162.538 18.024V18.768C162.538 19.184 162.482 19.488 162.37 19.68C162.258 19.872 162.074 19.968 161.818 19.968H156.778V23.856H162.49C162.746 23.856 162.93 23.952 163.042 24.144C163.154 24.336 163.21 24.64 163.21 25.056V25.8C163.21 26.216 163.154 26.52 163.042 26.712C162.93 26.904 162.746 27 162.49 27H154.042Z" fill="white"/>
</svg>
