<svg width="30" height="30" viewBox="0 0 30 30" fill="none" xmlns="http://www.w3.org/2000/svg">
<rect x="0.5" y="0.5" width="29" height="29" rx="14.5" fill="white" stroke="#828282"/>
<path d="M23 13.2222V7H16.7778L19.2604 9.48267L15.4187 13.3244C14.519 12.68 13.44 12.3334 12.3333 12.3333C9.392 12.3333 7 14.7253 7 17.6667C7 20.608 9.392 23 12.3333 23C15.2747 23 17.6667 20.608 17.6667 17.6667C17.6667 16.5164 17.2969 15.4533 16.6756 14.5813L20.5173 10.7396L23 13.2222ZM12.3333 21.2222C10.3724 21.2222 8.77778 19.6276 8.77778 17.6667C8.77778 15.7058 10.3724 14.1111 12.3333 14.1111C14.2942 14.1111 15.8889 15.7058 15.8889 17.6667C15.8889 19.6276 14.2942 21.2222 12.3333 21.2222Z" fill="#1877F2"/>
</svg>
