<svg width="50" height="50" viewBox="0 0 50 50" fill="none" xmlns="http://www.w3.org/2000/svg">
<rect width="50" height="50" rx="25" fill="#1877F2"/>
<path d="M29.4155 28.1728C30.0599 27.8564 30.7976 27.6764 31.5832 27.6764H31.5859C31.6658 27.6764 31.7031 27.5888 31.6445 27.5401C30.8275 26.8703 29.8942 26.3292 28.8828 25.9392C28.8722 25.9343 28.8615 25.9319 28.8509 25.927C30.5047 24.8297 31.5806 23.0462 31.5806 21.0341C31.5806 17.7007 28.6298 15 24.9894 15C21.3489 15 18.4009 17.7007 18.4009 21.0341C18.4009 23.0462 19.4767 24.8297 21.1332 25.927C21.1225 25.9319 21.1119 25.9343 21.1012 25.9392C19.9108 26.399 18.8429 27.0584 17.9242 27.9002C17.0107 28.7333 16.2835 29.7208 15.783 30.8078C15.2906 31.8722 15.0249 33.0126 15.0001 34.1679C14.9994 34.1939 15.0043 34.2197 15.0147 34.2439C15.0251 34.268 15.0407 34.2901 15.0606 34.3087C15.0804 34.3273 15.1041 34.342 15.1303 34.3521C15.1565 34.3622 15.1847 34.3674 15.2131 34.3674H16.8083C16.9228 34.3674 17.0187 34.2822 17.0214 34.1776C17.0746 32.2993 17.8975 30.5401 19.3542 29.2068C20.8589 27.8273 22.8616 27.0681 24.992 27.0681C26.502 27.0681 27.9508 27.4501 29.1998 28.1655C29.2318 28.1839 29.2687 28.1942 29.3065 28.1955C29.3444 28.1968 29.382 28.189 29.4155 28.1728ZM24.992 25.219C23.7723 25.219 22.6245 24.7835 21.759 23.9927C21.3332 23.6046 20.9956 23.1434 20.7657 22.6357C20.5358 22.1279 20.4181 21.5836 20.4195 21.0341C20.4195 19.9173 20.8962 18.8662 21.759 18.0754C22.6219 17.2847 23.7697 16.8491 24.992 16.8491C26.2144 16.8491 27.3595 17.2847 28.2251 18.0754C28.6509 18.4635 28.9885 18.9247 29.2184 19.4325C29.4483 19.9402 29.566 20.4846 29.5646 21.0341C29.5646 22.1509 29.0879 23.2019 28.2251 23.9927C27.3595 24.7835 26.2117 25.219 24.992 25.219ZM34.787 31.0097H32.5499V28.9659C32.5499 28.8589 32.4541 28.7713 32.3369 28.7713H30.8456C30.7284 28.7713 30.6325 28.8589 30.6325 28.9659V31.0097H28.3955C28.2783 31.0097 28.1824 31.0973 28.1824 31.2044V32.5669C28.1824 32.674 28.2783 32.7616 28.3955 32.7616H30.6325V34.8054C30.6325 34.9124 30.7284 35 30.8456 35H32.3369C32.4541 35 32.5499 34.9124 32.5499 34.8054V32.7616H34.787C34.9041 32.7616 35 32.674 35 32.5669V31.2044C35 31.0973 34.9041 31.0097 34.787 31.0097Z" fill="white"/>
</svg>
