<svg width="17" height="15" viewBox="0 0 17 15" fill="none" xmlns="http://www.w3.org/2000/svg">
<path fill-rule="evenodd" clip-rule="evenodd" d="M5.16524 1.491C4.03156 1.73685 2.90522 2.00426 1.78718 2.293C1.686 2.31819 1.59569 2.3659 1.52661 2.43065C1.45754 2.49539 1.41251 2.57454 1.39669 2.659C0.735957 6.556 2.26073 9.4 4.0793 11.273C4.99169 12.213 5.97969 12.909 6.80282 13.366C7.21563 13.594 7.57885 13.76 7.86521 13.866C8.00901 13.919 8.12554 13.955 8.21479 13.976C8.25415 13.9862 8.29432 13.9942 8.33504 14C8.34372 13.999 8.38214 13.995 8.45528 13.977C8.54454 13.955 8.66107 13.919 8.80487 13.866C9.08999 13.76 9.45569 13.594 9.86725 13.366C10.8994 12.7818 11.8174 12.0763 12.5908 11.273C14.4093 9.4 15.9341 6.556 15.2734 2.659C15.2576 2.57454 15.2125 2.49539 15.1435 2.43065C15.0744 2.3659 14.9841 2.31819 14.8829 2.293C14.1069 2.093 12.7978 1.767 11.5048 1.491C10.1834 1.21 8.96726 1 8.33504 1C7.70281 1 6.48795 1.21 5.16524 1.491ZM4.84789 0.525C6.14085 0.249 7.51315 0 8.33504 0C9.15569 0 10.5292 0.249 11.8222 0.525C12.9754 0.774775 14.1212 1.04652 15.2585 1.34C15.913 1.508 16.4064 1.963 16.5019 2.524C17.2122 6.721 15.5647 9.831 13.5676 11.889C12.7166 12.7722 11.7062 13.5475 10.5701 14.189C10.1751 14.4122 9.75753 14.6082 9.3218 14.775C8.9871 14.899 8.63008 15 8.33504 15C8.04 15 7.68298 14.899 7.34827 14.775C6.91245 14.6084 6.49485 14.4123 6.09994 14.189C4.96434 13.5474 3.95438 12.7721 3.1037 11.889C1.10413 9.831 -0.542127 6.721 0.168195 2.524C0.215687 2.25207 0.357673 1.99655 0.577716 1.78701C0.79776 1.57748 1.08686 1.42249 1.41157 1.34C2.54889 1.04652 3.69465 0.774782 4.84789 0.525V0.525Z" fill="#4F4F4F"/>
<path d="M10.1945 6C10.1945 6.39782 9.99861 6.77936 9.64989 7.06066C9.30117 7.34196 8.8282 7.5 8.33504 7.5C7.84187 7.5 7.36891 7.34196 7.02018 7.06066C6.67146 6.77936 6.47556 6.39782 6.47556 6C6.47556 5.60218 6.67146 5.22064 7.02018 4.93934C7.36891 4.65804 7.84187 4.5 8.33504 4.5C8.8282 4.5 9.30117 4.65804 9.64989 4.93934C9.99861 5.22064 10.1945 5.60218 10.1945 6Z" fill="#4F4F4F"/>
<path d="M7.60488 7.534C7.62921 7.41744 7.70394 7.31159 7.81582 7.23525C7.9277 7.15891 8.0695 7.11702 8.21603 7.117H8.40942C8.5552 7.11713 8.69626 7.15871 8.80781 7.23443C8.91936 7.31014 8.99425 7.41516 9.01933 7.531L9.44949 9.531C9.46485 9.60282 9.46056 9.67648 9.43692 9.74682C9.41328 9.81716 9.37087 9.88248 9.31265 9.93821C9.25443 9.99394 9.18181 10.0387 9.09988 10.0694C9.01795 10.1002 8.92868 10.116 8.83834 10.116H7.80323C7.71325 10.116 7.62437 10.1001 7.54274 10.0696C7.46112 10.0391 7.38872 9.99456 7.33056 9.93918C7.27241 9.8838 7.22989 9.81887 7.20598 9.7489C7.18207 9.67893 7.17732 9.6056 7.19208 9.534L7.60488 7.534V7.534Z" fill="#4F4F4F"/>
</svg>
