<svg width="30" height="30" viewBox="0 0 30 30" fill="none" xmlns="http://www.w3.org/2000/svg">
<path d="M15 0C12.0333 0 9.13319 0.879735 6.66645 2.52796C4.19971 4.17618 2.27713 6.51886 1.14181 9.25975C0.00649925 12.0006 -0.290551 15.0166 0.288227 17.9263C0.867006 20.8361 2.29562 23.5088 4.3934 25.6066C6.49119 27.7044 9.16394 29.133 12.0736 29.7118C14.9834 30.2905 17.9994 29.9935 20.7403 28.8582C23.4811 27.7229 25.8238 25.8003 27.472 23.3335C29.1203 20.8668 30 17.9667 30 15C30 11.0217 28.4196 7.20644 25.6066 4.3934C22.7936 1.58035 18.9783 0 15 0ZM8.57143 26.1214V23.9786C8.52438 23.0738 8.83512 22.1868 9.43653 21.5092C10.0379 20.8316 10.8818 20.4178 11.7857 20.3571H18.2143C19.1202 20.4178 19.9657 20.8331 20.5674 21.5131C21.1691 22.193 21.4785 23.0827 21.4286 23.9893V26.1321C19.4769 27.269 17.2587 27.868 15 27.868C12.7413 27.868 10.5231 27.269 8.57143 26.1321V26.1214ZM23.5714 24.5571V23.9036C23.6006 22.4428 23.056 21.0289 22.0544 19.9652C21.0528 18.9015 19.6741 18.2729 18.2143 18.2143H11.7857C10.3249 18.2702 8.94461 18.8979 7.94245 19.9622C6.94029 21.0265 6.39658 22.4421 6.42858 23.9036V24.5357C4.48775 22.7998 3.11975 20.5155 2.5056 17.985C1.89145 15.4546 2.06009 12.7973 2.98922 10.3649C3.91835 7.93237 5.56416 5.83932 7.70887 4.36269C9.85359 2.88605 12.3961 2.09542 15 2.09542C17.6039 2.09542 20.1464 2.88605 22.2911 4.36269C24.4358 5.83932 26.0817 7.93237 27.0108 10.3649C27.9399 12.7973 28.1086 15.4546 27.4944 17.985C26.8803 20.5155 25.5123 22.7998 23.5714 24.5357V24.5571Z" fill="#4F4F4F"/>
<path d="M15 5.35712C13.9404 5.35712 12.9047 5.67131 12.0237 6.25996C11.1427 6.84861 10.4561 7.68528 10.0506 8.66417C9.64514 9.64306 9.53905 10.7202 9.74576 11.7594C9.95247 12.7986 10.4627 13.7531 11.2119 14.5023C11.9611 15.2515 12.9157 15.7618 13.9548 15.9685C14.994 16.1752 16.0712 16.0691 17.0501 15.6636C18.0289 15.2581 18.8656 14.5715 19.4543 13.6905C20.0429 12.8095 20.3571 11.7738 20.3571 10.7143C20.3571 9.29346 19.7927 7.93085 18.788 6.92619C17.7834 5.92153 16.4208 5.35712 15 5.35712ZM15 13.9285C14.3642 13.9285 13.7428 13.74 13.2142 13.3868C12.6856 13.0336 12.2736 12.5316 12.0304 11.9443C11.7871 11.357 11.7234 10.7107 11.8474 10.0872C11.9715 9.46367 12.2776 8.89094 12.7271 8.44142C13.1766 7.99189 13.7494 7.68576 14.3729 7.56173C14.9964 7.43771 15.6427 7.50136 16.23 7.74465C16.8174 7.98793 17.3194 8.39991 17.6725 8.9285C18.0257 9.45708 18.2143 10.0785 18.2143 10.7143C18.2143 11.5667 17.8756 12.3843 17.2728 12.9871C16.67 13.5899 15.8524 13.9285 15 13.9285Z" fill="#4F4F4F"/>
</svg>
