<svg width="50" height="50" viewBox="0 0 50 50" fill="none" xmlns="http://www.w3.org/2000/svg">
<rect width="50" height="50" rx="25" fill="#1877F2"/>
<path d="M21 25C22.9344 25 24.5 22.7634 24.5 20C24.5 17.2366 22.9344 15 21 15C19.0656 15 17.5 17.2366 17.5 20C17.5 22.7634 19.0656 25 21 25ZM23.4 26.4286H23.1406C22.4906 26.875 21.7688 27.1429 21 27.1429C20.2312 27.1429 19.5125 26.875 18.8594 26.4286H18.6C16.6125 26.4286 15 28.7321 15 31.5714V32.8571C15 34.0402 15.6719 35 16.5 35H25.5C26.3281 35 27 34.0402 27 32.8571V31.5714C27 28.7321 25.3875 26.4286 23.4 26.4286ZM30 25C31.6562 25 33 23.0804 33 20.7143C33 18.3482 31.6562 16.4286 30 16.4286C28.3438 16.4286 27 18.3482 27 20.7143C27 23.0804 28.3438 25 30 25ZM31.5 26.4286H31.3813C30.9469 26.6429 30.4875 26.7857 30 26.7857C29.5125 26.7857 29.0531 26.6429 28.6187 26.4286H28.5C27.8625 26.4286 27.275 26.692 26.7594 27.1161C27.5219 28.2902 28 29.8482 28 31.5714V33.2857C28 33.3839 27.9844 33.4777 27.9812 33.5714H33.5C34.3281 33.5714 35 32.6116 35 31.4286C35 28.6652 33.4344 26.4286 31.5 26.4286V26.4286Z" fill="white"/>
</svg>
