<svg width="16" height="16" viewBox="0 0 16 16" fill="none" xmlns="http://www.w3.org/2000/svg">
<path fill-rule="evenodd" clip-rule="evenodd" d="M8.2911 0.335683C8.38398 0.229276 8.49432 0.144854 8.6158 0.0872515C8.73727 0.0296493 8.8675 0 8.99902 0C9.13054 0 9.26077 0.0296493 9.38224 0.0872515C9.50372 0.144854 9.61406 0.229276 9.70694 0.335683L15.7063 7.19133C15.7994 7.29747 15.8733 7.42356 15.9237 7.56238C15.9741 7.70119 16 7.85001 16 8.0003C16 8.15059 15.9741 8.29941 15.9237 8.43822C15.8733 8.57704 15.7994 8.70313 15.7063 8.80927L9.70694 15.6649C9.51919 15.8795 9.26454 16 8.99902 16C8.7335 16 8.47885 15.8795 8.2911 15.6649C8.10335 15.4504 7.99787 15.1594 7.99787 14.8559C7.99787 14.5525 8.10335 14.2615 8.2911 14.047L13.5845 8.0003L8.2911 1.95362C8.19798 1.84748 8.12411 1.72139 8.0737 1.58257C8.02329 1.44376 7.99734 1.29494 7.99734 1.14465C7.99734 0.994358 8.02329 0.845542 8.0737 0.706726C8.12411 0.56791 8.19798 0.441822 8.2911 0.335683Z" fill="black"/>
<path fill-rule="evenodd" clip-rule="evenodd" d="M0 8.0003C0 7.69726 0.105345 7.40663 0.292861 7.19235C0.480376 6.97807 0.734701 6.85769 0.999888 6.85769H13.9984C14.2636 6.85769 14.5179 6.97807 14.7055 7.19235C14.893 7.40663 14.9983 7.69726 14.9983 8.0003C14.9983 8.30334 14.893 8.59396 14.7055 8.80824C14.5179 9.02252 14.2636 9.14291 13.9984 9.14291H0.999888C0.734701 9.14291 0.480376 9.02252 0.292861 8.80824C0.105345 8.59396 0 8.30334 0 8.0003Z" fill="black"/>
</svg>
