<svg width="128" height="128" viewBox="0 0 128 128" fill="none" xmlns="http://www.w3.org/2000/svg">
<path d="M64 0C51.342 0 38.9683 3.75353 28.4435 10.7859C17.9188 17.8184 9.71575 27.8138 4.87174 39.5083C0.0277301 51.2027 -1.23968 64.071 1.22977 76.4858C3.69922 88.9005 9.79463 100.304 18.7452 109.255C27.6957 118.205 39.0995 124.301 51.5142 126.77C63.929 129.24 76.7973 127.972 88.4918 123.128C100.186 118.284 110.182 110.081 117.214 99.5565C124.246 89.0317 128 76.658 128 64C128 47.0261 121.257 30.7475 109.255 18.7452C97.2525 6.74284 80.9739 0 64 0V0ZM36.5715 111.451V102.309C36.3707 98.4482 37.6965 94.6638 40.2625 91.7727C42.8286 88.8817 46.4288 87.116 50.2857 86.8571H77.7143C81.5795 87.1159 85.187 88.888 87.7543 91.789C90.3216 94.6901 91.6418 98.4862 91.4286 102.354V111.497C83.1015 116.348 73.637 118.904 64 118.904C54.3631 118.904 44.8985 116.348 36.5715 111.497V111.451ZM100.571 104.777V101.989C100.696 95.7561 98.3723 89.7231 94.0989 85.1847C89.8254 80.6464 83.943 77.9643 77.7143 77.7143H50.2857C44.053 77.9527 38.1637 80.6312 33.8878 85.1722C29.6119 89.7132 27.2921 95.7528 27.4286 101.989V104.686C19.1477 97.2791 13.3109 87.5327 10.6906 76.7361C8.07017 65.9396 8.78973 54.602 12.754 44.2234C16.7183 33.8448 23.7404 24.9145 32.8912 18.6141C42.042 12.3138 52.8901 8.94047 64 8.94047C75.11 8.94047 85.9581 12.3138 95.1088 18.6141C104.26 24.9145 111.282 33.8448 115.246 44.2234C119.21 54.602 119.93 65.9396 117.309 76.7361C114.689 87.5327 108.852 97.2791 100.571 104.686V104.777Z" fill="white"/>
<path d="M63.9999 22.8573C59.4791 22.8573 55.0599 24.1978 51.3011 26.7094C47.5423 29.221 44.6126 32.7908 42.8826 36.9674C41.1526 41.144 40.7 45.7398 41.5819 50.1736C42.4639 54.6075 44.6408 58.6802 47.8374 61.8769C51.034 65.0735 55.1068 67.2504 59.5406 68.1324C63.9745 69.0143 68.5703 68.5617 72.7469 66.8317C76.9235 65.1017 80.4933 62.172 83.0049 58.4132C85.5164 54.6543 86.857 50.2352 86.857 45.7144C86.857 39.6523 84.4488 33.8385 80.1623 29.552C75.8757 25.2655 70.0619 22.8573 63.9999 22.8573V22.8573ZM63.9999 59.4287C61.2874 59.4287 58.6359 58.6244 56.3806 57.1174C54.1253 55.6105 52.3675 53.4686 51.3295 50.9627C50.2915 48.4567 50.0199 45.6992 50.5491 43.0389C51.0783 40.3786 52.3844 37.935 54.3024 36.017C56.2204 34.099 58.664 32.7928 61.3243 32.2637C63.9846 31.7345 66.7421 32.0061 69.2481 33.0441C71.754 34.0821 73.8959 35.8399 75.4029 38.0952C76.9098 40.3505 77.7141 43.002 77.7141 45.7144C77.7141 49.3517 76.2692 52.84 73.6973 55.4119C71.1254 57.9838 67.6371 59.4287 63.9999 59.4287Z" fill="white"/>
</svg>
