<svg width="30" height="30" viewBox="0 0 30 30" fill="none" xmlns="http://www.w3.org/2000/svg">
<g clip-path="url(#clip0)">
<path d="M0.000999451 15.0469V15.0525C0.00474945 15.1669 0.0178744 15.2775 0.0403745 15.3844L0.0609995 15.5531L0.0816245 15.7312L0.117249 15.9712L0.201624 16.5262L0.329124 17.1375C0.349749 17.2462 0.381624 17.3569 0.411624 17.4712L0.503499 17.8237C0.520374 17.8837 0.533499 17.9456 0.554124 18.0056L0.612249 18.1894L0.734124 18.57L0.765999 18.6675L0.801624 18.765L0.874749 18.9619L1.02662 19.365L1.20287 19.7737L1.29287 19.9819C1.32287 20.0512 1.3585 20.1187 1.39225 20.19L1.5985 20.61C1.67162 20.7506 1.75037 20.8894 1.82912 21.03L1.94725 21.2419C1.98662 21.3131 2.03162 21.3806 2.07475 21.4519L2.33725 21.8719C2.7085 22.425 3.11912 22.9725 3.57475 23.4919C4.03412 24.0075 4.53287 24.495 5.05975 24.945C5.59225 25.3875 6.151 25.7925 6.721 26.1487C7.29475 26.5012 7.88162 26.8031 8.461 27.0619L8.896 27.24C8.96725 27.2681 9.0385 27.3 9.11162 27.3262L9.32725 27.4031C9.3985 27.4294 9.61038 27.5044 9.751 27.5494L10.171 27.6731C10.2404 27.6937 10.3079 27.7144 10.3754 27.7312L10.5798 27.7819L10.9791 27.8794L11.3673 27.9544L11.5566 27.99L11.6485 28.0069L11.7404 28.02L12.1004 28.0706L12.2747 28.095L12.4454 28.1119L12.7716 28.14C12.8766 28.1494 12.9797 28.1606 13.0791 28.1625H13.0997C13.1086 28.6539 13.31 29.1222 13.6607 29.4666C14.0114 29.8109 14.4833 30.0038 14.9747 30.0037L15.0216 30.0019H15.0291C15.1407 29.9985 15.2517 29.9853 15.361 29.9625L15.5297 29.9419L15.7079 29.9212L15.9479 29.8856L16.5029 29.8012L17.1141 29.6737C17.2229 29.6531 17.3335 29.6212 17.4479 29.5912L17.8004 29.4994C17.8604 29.4825 17.9222 29.4694 17.9822 29.4487L18.166 29.3906L18.5466 29.2687L18.6441 29.2369L18.7416 29.2012L18.9385 29.1281L19.3416 28.9762L19.7504 28.8L19.9585 28.71C20.0279 28.68 20.0954 28.6444 20.1666 28.6106L20.5866 28.4044C20.7272 28.3312 20.866 28.2525 21.0066 28.1737L21.2185 28.0556C21.2897 28.0162 21.3572 27.9712 21.4285 27.9281L21.8485 27.6656C22.4016 27.2962 22.9491 26.8837 23.4685 26.4281C23.9841 25.9687 24.4716 25.47 24.9216 24.9431C25.3641 24.4106 25.7691 23.8519 26.1254 23.2819C26.4779 22.7081 26.7797 22.1212 27.0385 21.5419L27.2166 21.1069C27.2447 21.0356 27.2766 20.9644 27.3029 20.8912L27.3779 20.6756C27.4022 20.6044 27.4791 20.3925 27.5241 20.2519L27.6479 19.8319C27.6685 19.7625 27.6891 19.695 27.706 19.6275L27.7566 19.4231L27.8541 19.0237L27.9291 18.6356L27.9647 18.4462L27.9816 18.3544C27.987 18.3233 27.9914 18.292 27.9947 18.2606L28.0454 17.9006L28.0697 17.7262L28.0866 17.5556L28.1147 17.2294C28.1241 17.1244 28.1354 17.0212 28.1372 16.92L28.1391 16.8731C28.6351 16.8711 29.1101 16.6727 29.4601 16.3213C29.8101 15.9699 30.0066 15.4941 30.0066 14.9981L30.0048 14.9512V14.9456C30.0013 14.8341 29.9882 14.723 29.9654 14.6137L29.9447 14.445L29.9241 14.2669L29.8885 14.0269L29.8041 13.4719L29.6766 12.8606C29.656 12.7519 29.6241 12.6412 29.5941 12.5269L29.5022 12.1744C29.4854 12.1144 29.4722 12.0525 29.4516 11.9925L29.3935 11.8087L29.2716 11.4281L29.2397 11.3306L29.2041 11.2331L29.131 11.0362L28.9791 10.6331L28.8029 10.2244L28.7129 10.0162C28.6829 9.94687 28.6472 9.87937 28.6135 9.80812L28.4072 9.38812C28.3341 9.2475 28.2554 9.10875 28.1766 8.96812L28.0585 8.75625C28.0191 8.685 27.9741 8.6175 27.931 8.54625L27.6685 8.12625C27.2918 7.5598 26.8784 7.01864 26.431 6.50625C25.9695 5.9888 25.4733 5.50331 24.946 5.05312C24.4198 4.61513 23.8648 4.21298 23.2847 3.84937C22.7253 3.5074 22.144 3.20238 21.5447 2.93625L21.1097 2.75812C21.0385 2.73 20.9672 2.69812 20.8941 2.67187L20.6785 2.59687C20.6072 2.5725 20.3954 2.49562 20.2547 2.45062L19.8347 2.32687C19.7654 2.30812 19.6979 2.28562 19.6304 2.26875L19.426 2.21812C19.2929 2.18535 19.1598 2.15285 19.0266 2.12062L18.6385 2.04562L18.4491 2.01L18.3573 1.99312L18.2654 1.98L17.9054 1.92937L17.731 1.905L17.5604 1.88812L17.2341 1.86C17.1291 1.85062 17.026 1.83937 16.9266 1.8375L16.8535 1.83562C16.8442 1.34486 16.6428 0.877333 16.2926 0.533423C15.9423 0.189512 15.4712 -0.00335142 14.9804 -0.00375366L14.9335 -0.00187866H14.9279C14.8163 0.00153701 14.7053 0.0147123 14.596 0.0374963L14.4272 0.0581213L14.2491 0.0787463L14.0091 0.114371L13.4541 0.198746L12.8429 0.326246C12.7341 0.346871 12.6235 0.378746 12.5091 0.408746L12.1566 0.500621C12.0966 0.517496 12.0347 0.530621 11.9747 0.551246L11.791 0.609371L11.4104 0.731246L11.3129 0.763121L11.2154 0.798746L11.0185 0.871871L10.6154 1.02375L10.2066 1.2L9.9985 1.29C9.92912 1.32 9.86162 1.35562 9.79037 1.38937L9.37037 1.59562C9.22975 1.66875 9.091 1.7475 8.95037 1.82625L8.7385 1.94437C8.66725 1.98375 8.59975 2.02875 8.5285 2.07187L8.1085 2.33437C7.54249 2.71166 7.00137 3.12501 6.4885 3.57187C5.97105 4.03339 5.48556 4.52953 5.03537 5.05687C4.59739 5.58305 4.19523 6.13805 3.83162 6.71812C3.48966 7.2776 3.18463 7.85884 2.9185 8.45812L2.74037 8.89312C2.71225 8.96437 2.68037 9.03562 2.65412 9.10875L2.57912 9.32437C2.55475 9.39562 2.47787 9.6075 2.43287 9.74812L2.30912 10.1681L2.24912 10.3725C2.23037 10.44 2.21537 10.5094 2.1985 10.5769L2.101 10.9762L2.026 11.3644L1.99037 11.5537L1.9735 11.6456C1.96808 11.6767 1.9637 11.708 1.96037 11.7394L1.90975 12.0994L1.88537 12.2737L1.8685 12.4444L1.84037 12.7706C1.831 12.8756 1.81975 12.9787 1.81787 13.08L1.816 13.1269C1.32984 13.1429 0.868955 13.3473 0.530647 13.6968C0.19234 14.0463 0.00309594 14.5136 0.00287445 15L0.00474945 15.0469H0.000999451ZM2.1535 13.1456L2.15725 13.1287C2.176 13.0331 2.206 12.9375 2.23225 12.8381L2.31662 12.5325L2.36162 12.375L2.41412 12.2137L2.52287 11.8837L2.551 11.7994L2.58287 11.715L2.6485 11.5444L2.78537 11.1956L2.94287 10.8412L3.0235 10.6612L3.1135 10.4812L3.29725 10.1175C3.361 9.99562 3.43412 9.8775 3.50162 9.75375L3.60662 9.57C3.64225 9.50812 3.68162 9.45 3.721 9.39L3.9535 9.02625C4.28769 8.53837 4.65282 8.07241 5.04662 7.63125C5.4535 7.18875 5.89225 6.77062 6.3535 6.38437C6.82225 6.00562 7.31162 5.6625 7.8085 5.35875C8.311 5.06062 8.82288 4.8075 9.3235 4.59L9.70225 4.44187C9.76412 4.4175 9.826 4.39125 9.88787 4.37062L10.0754 4.30875C10.1372 4.28812 10.321 4.22437 10.4429 4.18687L10.8066 4.08562C10.8666 4.06875 10.9248 4.05 10.9847 4.03687L11.161 3.9975L11.506 3.91875L11.8416 3.85875L12.0047 3.83062L12.0854 3.81562C12.1116 3.81 12.1397 3.81 12.166 3.80625L12.4773 3.76875L12.6272 3.75L12.7735 3.73875L13.0547 3.71812C13.1466 3.7125 13.2329 3.70312 13.321 3.70312L13.801 3.69187L14.176 3.705L14.3354 3.70875C14.5481 3.72052 14.7606 3.73552 14.9729 3.75375L15.0141 3.75187H15.0216C15.4588 3.74087 15.8783 3.57742 16.2077 3.28982C16.5371 3.00221 16.7555 2.60853 16.8254 2.17687L16.8722 2.18812C16.9679 2.20687 17.0635 2.23687 17.1629 2.26312L17.4685 2.3475L17.626 2.3925L17.7873 2.445L18.1172 2.55375L18.2016 2.58187L18.286 2.61375L18.4566 2.67937L18.8054 2.81625L19.1597 2.97375L19.3397 3.05437L19.5197 3.14437L19.8835 3.32812C20.0054 3.39187 20.1254 3.465 20.2472 3.5325L20.431 3.6375C20.4929 3.67312 20.551 3.7125 20.611 3.75187L20.9747 3.98437C21.4529 4.31437 21.9235 4.67625 22.3697 5.0775C22.8122 5.48437 23.2304 5.92312 23.6166 6.38437C23.9954 6.85312 24.3385 7.3425 24.6422 7.83937C24.9404 8.34187 25.1935 8.85375 25.411 9.35437L25.5591 9.73312C25.5835 9.795 25.6097 9.85687 25.6304 9.91875L25.6922 10.1062C25.7129 10.1681 25.7766 10.3519 25.8141 10.4737L25.9154 10.8375C25.9322 10.8975 25.951 10.9556 25.9641 11.0156L26.0035 11.1919L26.0822 11.5369L26.1422 11.8725L26.1704 12.0356L26.1854 12.1162C26.191 12.1425 26.191 12.1706 26.1947 12.1969L26.2322 12.5081L26.251 12.6581L26.2622 12.8044L26.2829 13.0856C26.2885 13.1775 26.2979 13.2637 26.2979 13.3519L26.3091 13.8319L26.296 14.2069L26.2922 14.3662C26.2805 14.579 26.2655 14.7915 26.2472 15.0037L26.2491 15.045V15.0525C26.26 15.484 26.4195 15.8986 26.7007 16.2262C26.9818 16.5538 27.3674 16.7744 27.7922 16.8506L27.7866 16.8769C27.7679 16.9725 27.7397 17.0681 27.7116 17.1675L27.6272 17.4731L27.5822 17.6306L27.5297 17.7919L27.421 18.1219L27.3929 18.2062L27.361 18.2906L27.2954 18.4612L27.1585 18.81L27.001 19.1644L26.9204 19.3444L26.8304 19.5244L26.6466 19.8881C26.5829 20.01 26.5097 20.13 26.4422 20.2519L26.3372 20.4356C26.3016 20.4975 26.2622 20.5556 26.2229 20.6156L25.9904 20.9794C25.6562 21.4673 25.2911 21.9332 24.8972 22.3744C24.4891 22.8179 24.0525 23.2344 23.5904 23.6212C23.1216 24 22.6322 24.3431 22.1354 24.6469C21.6469 24.9346 21.141 25.1913 20.6204 25.4156L20.2416 25.5637C20.1797 25.5881 20.1179 25.6144 20.056 25.635L19.8685 25.6969C19.8066 25.7175 19.6229 25.7812 19.501 25.8187L19.1372 25.92C19.0772 25.9369 19.0191 25.9556 18.9591 25.9687L18.7829 26.0081L18.4379 26.0869L18.1022 26.1469L17.9391 26.175L17.8585 26.19C17.8304 26.1956 17.8041 26.1956 17.7779 26.1994L17.4666 26.2369L17.3166 26.2556L17.1704 26.2669L16.8891 26.2875C16.7972 26.2931 16.711 26.3025 16.6229 26.3025C16.4629 26.306 16.3029 26.3097 16.1429 26.3137L15.7679 26.3006L15.6085 26.2969C15.3958 26.2851 15.1833 26.2701 14.971 26.2519L14.9297 26.2537H14.9241C14.4891 26.2651 14.0714 26.4272 13.7428 26.7125C13.4141 26.9977 13.1947 27.3884 13.1222 27.8175C13.0285 27.7987 12.9329 27.7706 12.8354 27.7444L12.5297 27.66L12.3722 27.615L12.211 27.5625L11.881 27.4537L11.7966 27.4256L11.7122 27.3937L11.5416 27.3281C11.4252 27.2829 11.309 27.2372 11.1929 27.1912C11.0751 27.1381 10.9569 27.0856 10.8385 27.0337L10.6585 26.9531L10.4785 26.8631L10.1147 26.6794C9.99287 26.6156 9.87288 26.5425 9.751 26.475L9.56725 26.37C9.50537 26.3344 9.44725 26.295 9.38725 26.2556L9.0235 26.0231C8.53518 25.6895 8.06919 25.3244 7.6285 24.93C7.18501 24.5218 6.76851 24.0853 6.38162 23.6231C6.00844 23.161 5.66583 22.6749 5.356 22.1681C5.06831 21.6797 4.81156 21.1737 4.58725 20.6531L4.43912 20.2744C4.41475 20.2125 4.3885 20.1506 4.36787 20.0887L4.306 19.9012C4.28537 19.8394 4.22162 19.6556 4.18412 19.5337L4.08287 19.17C4.066 19.11 4.04725 19.0519 4.03412 18.9919L3.99475 18.8156C3.96864 18.7006 3.94239 18.5856 3.916 18.4706L3.856 18.135L3.82787 17.9719L3.81287 17.8912C3.80725 17.8631 3.80725 17.8369 3.8035 17.8106C3.7903 17.707 3.7778 17.6032 3.766 17.4994L3.74725 17.3494L3.736 17.2031L3.71537 16.9219C3.70975 16.83 3.70037 16.7437 3.70037 16.6556C3.69689 16.4956 3.69314 16.3356 3.68912 16.1756L3.70225 15.8006L3.706 15.6412C3.71777 15.4285 3.73277 15.216 3.751 15.0037L3.74912 14.9625V14.9569C3.73815 14.5161 3.57217 14.0932 3.28035 13.7627C2.98853 13.4321 2.58955 13.2149 2.1535 13.1494V13.1456Z" fill="white"/>
</g>
<defs>
<clipPath id="clip0">
<rect width="30" height="30" fill="white"/>
</clipPath>
</defs>
</svg>
